<?xml version="1.0" encoding="UTF-8" standalone="no"?>
<!-- Created with Inkscape (http://www.inkscape.org/) -->

<svg
   width="16"
   height="16"
   viewBox="0 0 4.233333 4.233333"
   version="1.1"
   id="svg1"
   xmlns="http://www.w3.org/2000/svg"
   xmlns:svg="http://www.w3.org/2000/svg">
  <defs
     id="defs1" />
  <g
     id="layer1"
     transform="translate(0,-0.06614576)">
    <path
       id="path1"
       style="fill:#8045ff;stroke-width:0.132292"
       d="M 2.1166666,1.8520832 0,2.9104165 V 3.1749998 L 2.1166667,4.2333333 4.2333331,3.1749998 V 2.9104165 Z m 0,0.2645834 L 3.9687498,3.0427082 2.1166667,3.96875 0.26458332,3.0427082 Z" />
    <path
       id="path2"
       style="fill:#8045ff;stroke-width:0.132292"
       d="M 0.79374996,3.0427082 2.1166666,2.3812499 3.4395832,3.0427082 2.1166666,3.7041665 Z" />
    <path
       id="path3"
       style="fill:#ff4545;stroke-width:0.132292"
       d="M 2.1166666,1.2567707 0,2.315104 2.1166666,3.3734373 4.2333331,2.315104 Z m 0,0.2645833 1.5874999,0.79375 -1.5874999,0.79375 -1.58749996,-0.79375 z" />
    <path
       id="path4"
       style="fill:#ff4545;stroke-width:0.132292"
       d="M 2.1166666,0.66145842 3.6553498e-8,1.7197916 2.1166666,2.7781249 4.2333331,1.7197916 Z m 0,0.2645833 1.5874999,0.79374988 -1.5874999,0.79375 -1.58749996,-0.79375 z" />
    <path
       id="path5"
       style="fill:#ff4545;stroke-width:0.132292"
       d="M 2.1166666,0.06614576 3.4830247e-8,1.1244791 2.1166666,2.1828125 4.2333331,1.1244791 Z m 0,0.26458322 L 3.7041665,1.1244791 2.1166666,1.9182292 0.52916664,1.1244791 Z" />
  </g>
</svg>
