<?xml version="1.0" encoding="UTF-8" standalone="no"?>
<!-- Created with Inkscape (http://www.inkscape.org/) -->

<svg
   width="16"
   height="16"
   viewBox="0 0 4.233333 4.233333"
   version="1.1"
   id="svg1"
   xmlns="http://www.w3.org/2000/svg"
   xmlns:svg="http://www.w3.org/2000/svg">
  <defs
     id="defs1" />
  <g
     id="layer1">
    <path
       id="path1"
       style="fill:#8045ff;stroke-width:0.132292"
       d="M 1.8520833,0.13229166 V 1.0583333 L 1.6536458,1.2567708 0.92604164,0.5291666 0.52916665,0.92604161 1.2567708,1.6536457 1.0583333,1.8520832 H 0.13229166 V 2.3812498 H 1.0583333 L 1.2567708,2.5796873 0.52916664,3.3072914 0.92604163,3.7041664 1.6536458,2.9765623 1.8520833,3.1749997 v 0.9260416 l 0.5291666,10e-8 V 3.1749998 L 2.5796874,2.9765623 3.3072915,3.7041664 3.7041665,3.3072914 2.9765624,2.5796873 3.1749999,2.3812498 H 4.1010415 V 1.8520832 H 3.1749999 L 2.9765624,1.6536457 3.7041665,0.92604161 3.3072915,0.5291666 2.5796874,1.2567708 2.3812499,1.0583333 V 0.13229166 Z M 2.1166666,1.5874999 2.6458332,2.1166665 2.1166666,2.6458332 1.5874999,2.1166665 Z" />
  </g>
  <g
     id="layer2"
     style="display:inline">
    <path
       id="path2"
       style="fill:#ffffff;stroke-width:0.132292"
       d="M 2.9104165,4.2333331 V 2.6458333 H 3.1749998 V 2.3812499 h 0.79375 v 0.2645834 h -0.79375 v 0.2645833 h 0.79375 V 2.6458333 H 4.2333332 V 4.2333331 H 3.9687498 V 3.175 h -0.79375 v 1.0583331 z m -1.5875,0 V 2.3812499 H 1.5874999 V 3.7041664 H 1.8520832 V 3.4395831 H 2.1166665 V 3.7041665 H 2.3812498 V 2.3812499 H 2.6458332 V 4.2333331 H 2.3812498 V 3.9687498 H 2.1166665 V 3.7041664 H 1.8520832 V 3.9687498 H 1.5874999 v 0.2645833 z" />
  </g>
</svg>
